<svg xmlns="http://www.w3.org/2000/svg" width="512" height="512" viewBox="0 0 512 512">
  <rect width="512" height="512" rx="96" fill="#0A0A0A"/>
  <g transform="translate(116, 80)">
    <svg width="280" height="280" viewBox="0 0 24 24" fill="none" stroke="#E8E4DF" stroke-width="1.4" stroke-linecap="round" stroke-linejoin="round">
      <path d="M16 4h2a2 2 0 0 1 2 2v14a2 2 0 0 1-2 2H6a2 2 0 0 1-2-2V6a2 2 0 0 1 2-2h2"/>
      <rect x="8" y="2" width="8" height="4" rx="1" ry="1"/>
    </svg>
  </g>
  <g transform="translate(181, 220)">
    <svg width="150" height="150" viewBox="0 0 24 24" fill="none" stroke="#E8E4DF" stroke-width="1.8" stroke-linecap="round" stroke-linejoin="round">
      <polyline points="23 4 23 10 17 10"/>
      <polyline points="1 20 1 14 7 14"/>
      <path d="M3.51 9a9 9 0 0 1 14.85-3.36L23 10M1 14l4.64 4.36A9 9 0 0 0 20.49 15"/>
    </svg>
  </g>
</svg>
